#!OML:ASF H:\Pregnant\Project 1\Capture day 1\Session 1\femalepreg.ASF
:FULLY-SPECIFIED
:DEGREES
564
root 1.126 16.0317 -18.8027 -159.235 65.4141 -181.962
lowerback -18.3115 0.932321 3.3234
upperback -3.38326 0.791063 1.08569
thorax 6.63104 0.564059 -0.525509
lowerneck -15.0624 -9.22861 -5.69918
upperneck 33.5352 -15.6385 15.0788
head 16.4762 -4.68793 4.74905
rclavicle 1.78906e-014 -1.19271e-014
rhumerus -24.9631 39.9226 -96.7509
rradius 48.3197
rwrist -18.7158
rhand -21.8946 -16.5363
rfingers 7.12502
rthumb 4.51051 -46.4683
lclavicle 1.78906e-014 -1.19271e-014
lhumerus -43.4516 -4.8594 88.6335
lradius 26.8273
lwrist 59.691
lhand -31.1909 8.39366
lfingers 7.12502
lthumb -4.4675 38.3265
rfemur -47.8837 13.7477 24.0776
rtibia 37.2228
rfoot -6.97991 -12.0987
rtoes 12.0068
lfemur -31.3285 0.46329 -21.2291
ltibia 56.6776
lfoot 3.86714 -1.46328
ltoes -22.3774
565
root 1.17352 16.0265 -18.8294 -158.955 66.3356 -181.582
lowerback -18.0983 0.88311 3.40288
upperback -3.38975 0.703761 1.29158
thorax 6.50436 0.519171 -0.374369
lowerneck -14.967 -9.2534 -5.87553
upperneck 33.5389 -15.6558 15.1094
head 16.4799 -4.72751 4.79114
rclavicle -2.87244e-014 -1.19271e-014
rhumerus -25.4131 40.0069 -96.5917
rradius 48.7682
rwrist -19.5581
rhand -22.597 -16.8124
rfingers 7.12502
rthumb 3.83226 -46.7577
lclavicle -2.87244e-014 -1.19271e-014
lhumerus -43.5005 -5.37462 89.1008
lradius 26.9236
lwrist 57.8882
lhand -31.7461 6.97489
lfingers 7.12502
lthumb -5.00358 36.8958
rfemur -47.5542 14.07 24.3098
rtibia 37.0842
rfoot -7.09299 -11.4551
rtoes 12.0138
lfemur -32.2619 0.527827 -21.0026
ltibia 57.9875
lfoot 3.63532 -2.56159
ltoes -22.2475
566
root 1.22065 16.0202 -18.8566 -158.674 67.2844 -181.23
lowerback -17.9281 0.835648 3.43935
upperback -3.38859 0.62587 1.49471
thorax 6.40948 0.478587 -0.1987
lowerneck -14.9105 -9.28417 -6.04042
upperneck 33.565 -15.6802 15.1102
head 16.5005 -4.76948 4.81659
rclavicle -6.89783e-014 -3.26007e-014
rhumerus -25.8059 39.9853 -96.4066
rradius 49.0888
rwrist -20.2551
rhand -22.99 -16.6302
rfingers 7.12502
rthumb 3.45275 -46.582
lclavicle -6.89783e-014 -3.26007e-014
lhumerus -43.5049 -5.97722 89.5928
lradius 27.0048
lwrist 56.1427
lhand -32.3088 5.59648
lfingers 7.12502
lthumb -5.54693 35.5039
rfemur -47.2793 14.39 24.5095
rtibia 37.0051
rfoot -7.23823 -10.8012
rtoes 12.0142
lfemur -33.1865 0.553524 -20.8004
ltibia 59.1757
lfoot 3.38902 -3.47149
ltoes -22.2655
567
root 1.26798 16.0129 -18.8837 -158.418 68.2645 -180.934
lowerback -17.8078 0.773616 3.40038
upperback -3.37992 0.539979 1.71346
thorax 6.34923 0.433235 0.0354976
lowerneck -14.8876 -9.31108 -6.21515
upperneck 33.6159 -15.6878 15.0714
head 16.5346 -4.80883 4.82972
rclavicle 2.55438e-014 -1.66979e-014
rhumerus -26.1749 39.9345 -96.1744
rradius 49.3236
rwrist -20.8392
rhand -23.0508 -15.9994
rfingers 7.12502
rthumb 3.39402 -45.9522
lclavicle 2.55438e-014 -1.66979e-014
lhumerus -43.4659 -6.58723 90.1091
lradius 27.0583
lwrist 54.3719
lhand -32.9405 4.26707
lfingers 7.12502
lthumb -6.15679 34.1576
rfemur -47.0665 14.7315 24.6537
rtibia 36.9924
rfoot -7.41546 -10.1569
rtoes 12.0292
lfemur -34.1003 0.540232 -20.6286
ltibia 60.243
lfoot 3.14375 -4.19839
ltoes -22.4596
568
root 1.31609 16.0051 -18.9101 -158.188 69.29 -180.69
lowerback -17.7336 0.705499 3.28976
upperback -3.36519 0.456735 1.94128
thorax 6.32079 0.388333 0.32146
lowerneck -14.8903 -9.3349 -6.40631
upperneck 33.6874 -15.6801 15.004
head 16.5806 -4.84606 4.83635
rclavicle -3.73715e-014 1.74931e-014
rhumerus -26.5034 39.8267 -95.9054
rradius 49.446
rwrist -21.2986
rhand -22.8667 -15.1308
rfingers 7.12502
rthumb 3.57182 -45.0806
lclavicle -3.73715e-014 1.74931e-014
lhumerus -43.3876 -7.20221 90.6386
lradius 27.0814
lwrist 52.5571
lhand -33.7071 3.00869
lfingers 7.12502
lthumb -6.89682 32.8764
rfemur -46.9095 15.1122 24.7416
rtibia 37.0428
rfoot -7.62176 -9.52323
rtoes 12.0879
lfemur -34.9923 0.497387 -20.4822
ltibia 61.1892
lfoot 2.90875 -4.74683
ltoes -22.7327
569
root 1.36454 15.9967 -18.9358 -158.039 70.3324 -180.562
lowerback -17.6935 0.610209 3.09268
upperback -3.35891 0.352468 2.17998
thorax 6.30205 0.331958 0.663773
lowerneck -14.8912 -9.35126 -6.5916
upperneck 33.7578 -15.6501 14.8966
head 16.615 -4.87963 4.82762
rclavicle 2.90226e-014 2.22639e-014
rhumerus -26.8602 39.7491 -95.6101
rradius 49.5273
rwrist -21.6943
rhand -22.7552 -14.4532
rfingers 7.12502
rthumb 3.67955 -44.4012
lclavicle 2.90226e-014 2.22639e-014
lhumerus -43.2796 -7.74856 91.1413
lradius 27.0673
lwrist 50.6924
lhand -34.5067 1.88989
lfingers 7.12502
lthumb -7.66868 31.7308
rfemur -46.8193 15.5213 24.7493
rtibia 37.1523
rfoot -7.8431 -8.92578
rtoes 12.1618
lfemur -35.8813 0.377901 -20.3673
ltibia 62.0187
lfoot 2.69521 -5.10517
ltoes -22.9762
570
root 1.4132 15.9884 -18.9608 -157.951 71.4015 -180.522
lowerback -17.7433 0.562395 2.99285
upperback -3.31554 0.293182 2.27384
thorax 6.37438 0.299498 0.808384
lowerneck -14.8976 -9.36675 -6.65967
upperneck 33.7815 -15.6745 14.8746
head 16.6368 -4.90962 4.82311
rclavicle 1.74931e-014 1.59028e-014
rhumerus -27.0777 39.4419 -95.4059
rradius 49.4725
rwrist -21.9567
rhand -23.0217 -14.2651
rfingers 7.12502
rthumb 3.42215 -44.2173
lclavicle 1.74931e-014 1.59028e-014
lhumerus -43.1003 -8.51703 91.4839
lradius 27.0581
lwrist 48.9311
lhand -35.312 0.896929
lfingers 7.12502
lthumb -8.44592 30.708
rfemur -46.7809 15.9474 24.7007
rtibia 37.3044
rfoot -8.07424 -8.33583
rtoes 12.2517
lfemur -36.7615 0.189398 -20.2704
ltibia 62.7341
lfoot 2.48631 -5.28311
ltoes -23.2163
571
root 1.46175 15.9801 -18.985 -157.906 72.4959 -180.547
lowerback -17.952 0.622383 3.17705
upperback -3.18094 0.324576 2.06063
thorax 6.63411 0.317244 0.487708
lowerneck -14.9209 -9.38004 -6.44114
upperneck 33.7031 -15.8263 15.0374
head 16.6306 -4.93125 4.81977
rclavicle 2.26615e-014 6.91771e-014
rhumerus -27.0158 38.714 -95.4319
rradius 49.2428
rwrist -22.0643
rhand -23.7448 -14.5478
rfingers 7.12502
rthumb 2.72379 -44.5102
lclavicle 2.26615e-014 6.91771e-014
lhumerus -42.8066 -9.79377 91.5013
lradius 27.0945
lwrist 47.4468
lhand -36.0475 -0.0219951
lfingers 7.12502
lthumb -9.15566 29.7593
rfemur -46.7866 16.4244 24.5933
rtibia 37.4837
rfoot -8.29896 -7.78548
rtoes 12.3479
lfemur -37.6356 -0.0727741 -20.1725
ltibia 63.3423
lfoot 2.27391 -5.29534
ltoes -23.4485
572
root 1.51003 15.9721 -19.0086 -157.869 73.6154 -180.591
lowerback -18.2792 0.795036 3.64379
upperback -2.97553 0.456286 1.56177
thorax 7.0413 0.393526 -0.273699
lowerneck -14.958 -9.39672 -5.94684
upperneck 33.529 -16.1047 15.3711
head 16.5984 -4.94771 4.81364
rclavicle -1.6201e-014 -5.56597e-015
rhumerus -26.7269 37.5615 -95.6891
rradius 48.8581
rwrist -22.0282
rhand -24.861 -15.2179
rfingers 7.12502
rthumb 1.64578 -45.1913
lclavicle -1.6201e-014 -5.56597e-015
lhumerus -42.4501 -11.5981 91.2363
lradius 27.1943
lwrist 46.2816
lhand -36.7276 -0.957896
lfingers 7.12502
lthumb -9.81184 28.7935
rfemur -46.8161 16.9352 24.4574
rtibia 37.6686
rfoot -8.50788 -7.25444
rtoes 12.3959
lfemur -38.4997 -0.406441 -20.0532
ltibia 63.8489
lfoot 2.03839 -5.15445
ltoes -23.6842
573
root 1.55777 15.9646 -19.0323 -157.815 74.7539 -180.625
lowerback -18.6886 1.05617 4.35752
upperback -2.71711 0.663427 0.83296
thorax 7.56527 0.521089 -1.40435
lowerneck -15.0266 -9.40728 -5.20325
upperneck 33.2896 -16.4722 15.8248
head 16.55 -4.95256 4.79527
rclavicle 2.87244e-014 4.21423e-014
rhumerus -26.2634 36.0807 -96.1563
rradius 48.3473
rwrist -21.8779
rhand -26.0587 -15.9448
rfingers 7.12502
rthumb 0.489096 -45.924
lclavicle 2.87244e-014 4.21423e-014
lhumerus -42.0521 -13.8073 90.7095
lradius 27.3563
lwrist 45.4177
lhand -37.3289 -1.87695
lfingers 7.12502
lthumb -10.3919 27.8463
rfemur -46.8543 17.4651 24.3072
rtibia 37.8452
rfoot -8.70532 -6.72542
rtoes 12.4599
lfemur -39.349 -0.819066 -19.8987
ltibia 64.2579
lfoot 1.7599 -4.86303
ltoes -23.9425
574
root 1.60497 15.9578 -19.0564 -157.708 75.9097 -180.602
lowerback -19.0852 1.32855 5.14743
upperback -2.46926 0.875749 0.0577865
thorax 8.08622 0.663403 -2.63255
lowerneck -15.1084 -9.39755 -4.37535
upperneck 33.0569 -16.8289 16.2772
head 16.4994 -4.94142 4.76429
rclavicle 1.31198e-014 2.18663e-014
rhumerus -25.8001 34.5252 -96.7249
rradius 47.7684
rwrist -21.67
rhand -27.1518 -16.5652
rfingers 7.12502
rthumb -0.566709 -46.5442
lclavicle 1.31198e-014 2.18663e-014
lhumerus -41.708 -16.1185 90.1015
lradius 27.5684
lwrist 44.7962
lhand -37.8742 -2.75698
lfingers 7.12502
lthumb -10.918 26.9392
rfemur -46.8844 18.0021 24.1637
rtibia 38.0056
rfoot -8.89277 -6.18482
rtoes 12.5138
lfemur -40.1737 -1.30654 -19.6939
ltibia 64.5727
lfoot 1.42805 -4.43048
ltoes -24.2155
575
root 1.6516 15.9513 -19.0805 -157.543 77.091 -180.514
lowerback -19.3889 1.55399 5.83657
upperback -2.28657 1.04899 -0.602301
thorax 8.4914 0.788496 -3.69692
lowerneck -15.177 -9.37131 -3.64522
upperneck 32.885 -17.1091 16.6393
head 16.4606 -4.92239 4.72984
rclavicle -2.08724e-015 -2.54444e-014
rhumerus -25.4869 33.0827 -97.2481
rradius 47.1712
rwrist -21.4514
rhand -28.1627 -17.0985
rfingers 7.12502
rthumb -1.543 -47.0727
lclavicle -2.08724e-015 -2.54444e-014
lhumerus -41.5106 -18.2991 89.6206
lradius 27.829
lwrist 44.3719
lhand -38.3621 -3.52287
lfingers 7.12502
lthumb -11.3885 26.1479
rfemur -46.9059 18.5513 24.0246
rtibia 38.1525
rfoot -9.07494 -5.62659
rtoes 12.5928
lfemur -40.9683 -1.85248 -19.4409
ltibia 64.7943
lfoot 1.03565 -3.87005
ltoes -24.5391
576
root 1.6977 15.9451 -19.1048 -157.317 78.2934 -180.362
lowerback -19.5756 1.69202 6.3267
upperback -2.18749 1.14525 -1.0564
thorax 8.7321 0.866739 -4.44935
lowerneck -15.2305 -9.33256 -3.1166
upperneck 32.8139 -17.2759 16.8347
head 16.4442 -4.90223 4.68518
rclavicle -1.16786e-015 -1.64991e-014
rhumerus -25.3892 31.8845 -97.6312
rradius 46.5886
rwrist -21.2812
rhand -29.0864 -17.5889
rfingers 7.12502
rthumb -2.43516 -47.5548
lclavicle -1.16786e-015 -1.64991e-014
lhumerus -41.4546 -20.1041 89.3383
lradius 28.0726
lwrist 43.9853
lhand -38.789 -4.15644
lfingers 7.12502
lthumb -11.8002 25.4911
rfemur -46.9194 19.0907 23.8959
rtibia 38.2902
rfoot -9.28438 -5.03941
rtoes 13.0214
lfemur -41.7326 -2.4628 -19.1368
ltibia 64.9222
lfoot 0.602446 -3.19683
ltoes -24.8737
577
root 1.74345 15.9391 -19.1297 -157.12 79.5078 -180.228
lowerback -19.6409 1.72473 6.56489
upperback -2.17066 1.14876 -1.27006
thorax 8.79596 0.882441 -4.82088
lowerneck -15.2442 -9.28552 -2.86801
upperneck 32.8224 -17.3202 16.8894
head 16.4435 -4.88702 4.65642
rclavicle 2.18663e-015 4.23411e-014
rhumerus -25.5254 30.9823 -97.8067
rradius 46.0346
rwrist -21.1793
rhand -30.0377 -18.2076
rfingers 7.12502
rthumb -3.35385 -48.161
lclavicle 2.18663e-015 4.23411e-014
lhumerus -41.5711 -21.5473 89.3639
lradius 28.3243
lwrist 43.7413
lhand -39.1389 -4.5711
lfingers 7.12502
lthumb -12.1375 25.0568
rfemur -46.9237 19.6182 23.7556
rtibia 38.4302
rfoot -9.48727 -4.43398
rtoes 13.4851
lfemur -42.4556 -3.15233 -18.7982
ltibia 64.9523
lfoot 0.151773 -2.42112
ltoes -25.1027
578
root 1.78915 15.9329 -19.1543 -156.913 80.749 -180.069
lowerback -19.6208 1.68372 6.62204
upperback -2.20377 1.0873 -1.31279
thorax 8.7419 0.852618 -4.91796
lowerneck -15.236 -9.23415 -2.83065
upperneck 32.8779 -17.2801 16.8553
head 16.454 -4.87715 4.64451
rclavicle 1.71824e-014 3.13086e-014
rhumerus -25.808 30.293 -97.8213
rradius 45.4873
rwrist -21.1304
rhand -30.9843 -18.9457
rfingers 7.12502
rthumb -4.26802 -48.8827
lclavicle 1.71824e-014 3.13086e-014
lhumerus -41.7965 -22.7024 89.5896
lradius 28.5822
lwrist 43.64
lhand -39.3682 -4.73943
lfingers 7.12502
lthumb -12.3587 24.8753
rfemur -46.9171 20.1416 23.6176
rtibia 38.5785
rfoot -9.68437 -3.80134
rtoes 13.8665
lfemur -43.1307 -3.89536 -18.4167
ltibia 64.886
lfoot -0.302327 -1.56485
ltoes -25.1848
